<?xml version="1.0" encoding="UTF-8" standalone="no"?><!DOCTYPE svg PUBLIC "-//W3C//DTD SVG 1.1//EN"
        "http://www.w3.org/Graphics/SVG/1.1/DTD/svg11.dtd">
<svg width="100%" height="100%" viewBox="0 0 325 267" version="1.1" xmlns="http://www.w3.org/2000/svg"
     xmlns:xlink="http://www.w3.org/1999/xlink"
     style="fill-rule:evenodd;clip-rule:evenodd;stroke-linejoin:round;stroke-miterlimit:2;"><rect id="Artboard1" x="0" y="0" width="325" height="266.667" style="fill:none;"/>
    <path d="M322.479,16.562c0,-8.876 -7.207,-16.083 -16.083,-16.083l-287.792,0c-8.876,0 -16.083,7.207 -16.083,16.083l-0,34.751c-0,8.876 7.207,16.083 16.083,16.083l287.792,-0c8.876,-0 16.083,-7.207 16.083,-16.083l0,-34.751Z"
          style="fill:#e72f41;"/>
    <path d="M322.479,115.687c0,-8.508 -6.908,-15.416 -15.417,-15.416l-109.958,-0c-8.509,-0 -15.417,6.908 -15.417,15.416l0,36.084c0,8.509 6.908,15.416 15.417,15.416l109.958,0c8.509,0 15.417,-6.907 15.417,-15.416l0,-36.084Z"
          style="fill:#ffcc0c;"/>
    <path d="M17.354,199.229l289.458,0c8.595,0 15.667,7.072 15.667,15.667l0,35.625c0,8.594 -7.072,15.667 -15.667,15.667l-289.166,-0c-8.275,-0 -15.084,-6.809 -15.084,-15.084l0,-37.042c0,-8.121 6.671,-14.81 14.792,-14.833Z"
          style="fill:#51b797;fill-rule:nonzero;"/>
    <path d="M2.646,225.854l-0,-110.542c-0,-8.525 7.016,-15.541 15.541,-15.541l35.875,-0c8.526,-0 15.542,7.016 15.542,15.541l0,110.542c0,8.069 -6.639,14.708 -14.708,14.708l-37.5,0c-8.069,0 -14.709,-6.639 -14.709,-14.708l-0.041,0Z"
          style="fill:#51b797;fill-rule:nonzero;"/>
    <path d="M5.187,185.562c0,42.79 35.211,78 78,78l0,-64.291c-7.52,-0 -13.708,-6.188 -13.708,-13.709l-64.292,0Z"
          style="fill:#4fb796;"/></svg>
