<svg width="40" height="40" viewBox="0 0 40 40" fill="none" xmlns="http://www.w3.org/2000/svg">
<path fill-rule="evenodd" clip-rule="evenodd" d="M7.5 5H32.5C33.163 5 33.7989 5.26339 34.2678 5.73223C34.7366 6.20107 35 6.83696 35 7.5V32.5C35 33.163 34.7366 33.7989 34.2678 34.2678C33.7989 34.7366 33.163 35 32.5 35H7.5C6.83696 35 6.20107 34.7366 5.73223 34.2678C5.26339 33.7989 5 33.163 5 32.5V7.5C5 6.83696 5.26339 6.20107 5.73223 5.73223C6.20107 5.26339 6.83696 5 7.5 5ZM7.5 25V32.5H32.5V30L26.25 23.75L24.2625 25.7375C23.7941 26.2031 23.1605 26.4645 22.5 26.4645C21.8395 26.4645 21.2059 26.2031 20.7375 25.7375L13.75 18.75L7.5 25ZM28.0125 21.975L32.5 26.4625V7.5H7.5V21.4625L11.9875 16.975C12.4559 16.5094 13.0895 16.248 13.75 16.248C14.4105 16.248 15.0441 16.5094 15.5125 16.975L22.5 23.9625L24.4875 21.975C24.9559 21.5094 25.5895 21.248 26.25 21.248C26.9105 21.248 27.5441 21.5094 28.0125 21.975ZM25.8334 16.868C25.2167 17.2801 24.4917 17.5 23.75 17.5C22.7554 17.5 21.8016 17.1049 21.0983 16.4017C20.3951 15.6984 20 14.7446 20 13.75C20 13.0083 20.2199 12.2833 20.632 11.6666C21.044 11.0499 21.6297 10.5693 22.3149 10.2855C23.0002 10.0016 23.7542 9.92736 24.4816 10.0721C25.209 10.2168 25.8772 10.5739 26.4017 11.0984C26.9261 11.6228 27.2833 12.291 27.4279 13.0184C27.5726 13.7458 27.4984 14.4998 27.2145 15.1851C26.9307 15.8703 26.4501 16.456 25.8334 16.868ZM24.4445 12.7107C24.2389 12.5733 23.9972 12.5 23.75 12.5C23.4185 12.5 23.1005 12.6317 22.8661 12.8661C22.6317 13.1005 22.5 13.4185 22.5 13.75C22.5 13.9972 22.5733 14.2389 22.7107 14.4445C22.848 14.65 23.0432 14.8102 23.2716 14.9049C23.5001 14.9995 23.7514 15.0242 23.9939 14.976C24.2363 14.9278 24.4591 14.8087 24.6339 14.6339C24.8087 14.4591 24.9277 14.2363 24.976 13.9939C25.0242 13.7514 24.9995 13.5001 24.9049 13.2716C24.8102 13.0432 24.65 12.848 24.4445 12.7107Z" fill="url(#paint0_linear_1059_923)"/>
<defs>
<linearGradient id="paint0_linear_1059_923" x1="5.07075" y1="5.15" x2="39.9085" y2="12.8808" gradientUnits="userSpaceOnUse">
<stop stop-color="#ACFADF"/>
<stop offset="1" stop-color="#E8FFCE"/>
</linearGradient>
</defs>
</svg>
