<?xml version="1.0" encoding="UTF-8" standalone="no"?><!DOCTYPE svg PUBLIC "-//W3C//DTD SVG 1.1//EN"
        "http://www.w3.org/Graphics/SVG/1.1/DTD/svg11.dtd">
<svg width="100%" height="100%" viewBox="0 0 1425 321" version="1.1" xmlns="http://www.w3.org/2000/svg"
     xmlns:xlink="http://www.w3.org/1999/xlink"
     style="fill-rule:evenodd;clip-rule:evenodd;stroke-linejoin:round;stroke-miterlimit:2;"><rect id="Artboard1" x="0" y="0" width="1425" height="320.833" style="fill:none;"/>
    <path d="M1006.96,13.833c0,-5.841 -4.742,-10.583 -10.583,-10.583l-25.125,-0c-5.841,-0 -10.583,4.742 -10.583,10.583l-0,292.167c-0,5.841 4.742,10.583 10.583,10.583l25.125,0c5.841,0 10.583,-4.742 10.583,-10.583l0,-292.167Z"
          style="fill:#ffffff;"/>
    <path d="M1081.71,13.833c0,-5.841 -4.742,-10.583 -10.583,-10.583l-25.125,-0c-5.841,-0 -10.583,4.742 -10.583,10.583l-0,292.167c-0,5.841 4.742,10.583 10.583,10.583l25.125,0c5.841,0 10.583,-4.742 10.583,-10.583l0,-292.167Z"
          style="fill:#ffffff;"/>
    <path d="M919.167,274.292c-4,-4.594 -6.023,-10.589 -5.625,-16.667l-0,-25c0.25,-2.5 0.375,-5.125 0.375,-7.708c-0,-2.584 -0,-5.125 -0.375,-7.75c-0.788,-10.066 -3.267,-19.926 -7.334,-29.167c-6.792,-15.244 -17.576,-28.374 -31.208,-38c-15.515,-11.033 -34.088,-16.964 -53.126,-16.964c-50.286,-0 -91.666,41.38 -91.666,91.666c-0,50.287 41.38,91.667 91.666,91.667c19.565,0 38.625,-6.263 54.376,-17.869c1.275,1.824 2.667,3.564 4.167,5.208c11.083,10.375 26.833,15.625 47.041,15.625c2.125,0 4.167,-0.25 6.375,-0.375l0,-29.75c0.137,-4.412 -2.547,-8.454 -6.666,-10.041c-3.024,-0.886 -5.775,-2.52 -8,-4.75m-96.584,-4.167c-0.057,0 -0.115,0 -0.172,0c-24.801,0 -45.209,-20.407 -45.209,-45.208c0,-24.801 20.408,-45.208 45.209,-45.208c24.8,-0 45.208,20.407 45.208,45.208c-0,5.873 -1.144,11.69 -3.369,17.125c-6.896,16.908 -23.406,28.036 -41.667,28.083"
          style="fill:#ffffff;fill-rule:nonzero;"/>
    <path d="M695.833,134c6.24,0 11.375,5.135 11.375,11.375l0,87.5c0,26.472 -7.236,46.931 -21.708,61.375c-14.472,14.444 -35.042,21.667 -61.708,21.667c-11.669,0.219 -23.271,-1.818 -34.167,-6c-6.267,-2.494 -12.028,-6.109 -17,-10.667c-4.404,-4.09 -11.304,-4.09 -15.708,-0c-4.888,4.494 -10.53,8.091 -16.667,10.625c-11.071,4.232 -22.86,6.27 -34.708,6c-26.889,-0 -47.459,-7.222 -61.709,-21.667c-14.25,-14.444 -21.361,-34.902 -21.333,-61.375l0,-87.5c-0.006,-6.033 4.806,-11.067 10.833,-11.333l29.167,-0c6.24,-0 11.375,5.135 11.375,11.375l0,83.792c0,14.916 2.542,25.833 7.667,32.833c5.125,7 13.125,10.542 24,10.542c10.875,-0 19.375,-3.584 24.708,-10.709c5.333,-7.125 8,-18 8,-32.666l0,-83.792c-0,-0.016 -0,-0.033 -0,-0.049c-0,-6.218 5.116,-11.334 11.333,-11.334c0.139,0 0.278,0.003 0.417,0.008l29.167,-0c6.24,-0 11.375,5.135 11.375,11.375l-0,83.792c-0,14.666 2.666,25.583 8,32.666c5.333,7.084 13.541,10.709 24.666,10.709c11.125,-0 18.917,-3.5 24.042,-10.542c5.125,-7.042 7.667,-17.917 7.667,-32.833l-0,-83.792c-0,-0.014 -0,-0.028 -0,-0.042c-0,-6.217 5.116,-11.333 11.333,-11.333l29.583,-0Z"
          style="fill:#ffffff;fill-rule:nonzero;"/>
    <path d="M1234.96,270.833c3.714,-1.434 7.262,-3.264 10.584,-5.458c5.618,-3.903 13.329,-3.082 18,1.917l18.583,20.208c-16.667,19.028 -41,28.556 -73,28.583c-18.314,0.371 -36.456,-3.629 -52.917,-11.666c-14.63,-7.187 -26.906,-18.407 -35.375,-32.334c-8.447,-14.232 -12.775,-30.535 -12.5,-47.083c-0.19,-16.459 4.134,-32.659 12.5,-46.833c8.014,-13.64 19.617,-24.825 33.542,-32.334c14.943,-7.904 31.639,-11.917 48.542,-11.666c15.916,-0.177 31.642,3.497 45.833,10.708c13.697,6.998 25.15,17.714 33.042,30.917c6.145,10.17 10.051,21.534 11.458,33.333c0.964,8.022 -4.552,15.505 -12.5,16.958l-109.917,21.25c-2.532,0.537 -4.36,2.792 -4.36,5.381c0,1.046 0.299,2.07 0.86,2.953c3.511,5.311 8.277,9.676 13.875,12.708c9.04,4.626 19.1,6.905 29.25,6.625c8.354,0.135 16.661,-1.278 24.5,-4.167Zm-63.625,-85.583c-6.979,7.48 -11.287,17.065 -12.25,27.25c-0.026,0.216 -0.039,0.433 -0.039,0.651c0,2.971 2.445,5.416 5.417,5.416c0.363,0 0.725,-0.036 1.081,-0.109l79.166,-15.375c-2.184,-8.856 -7.424,-16.663 -14.791,-22.041c-7.834,-5.647 -17.305,-8.575 -26.959,-8.334c-11.83,-0.451 -23.319,4.105 -31.625,12.542Z"
          style="fill:#ffffff;fill-rule:nonzero;"/>
    <path d="M1420.83,305.292c-5.456,3.932 -11.627,6.763 -18.166,8.333c-7.292,1.813 -14.779,2.723 -22.292,2.708c-20.833,0 -32.583,-5.25 -43.708,-15.708c-11.125,-10.458 -16.667,-25.917 -16.667,-46.25l0,-239.708c0,-6.583 5.417,-12 12,-12l22.167,-0c6.583,-0 12,5.417 12,12l-0,73.208c-0,0.014 -0,0.028 -0,0.042c-0,3.748 3.084,6.833 6.833,6.833l23.875,-0c0.014,-0 0.028,-0 0.042,-0c6.56,-0 11.958,5.398 11.958,11.958l0,14.584c0,0.014 0,0.029 0,0.043c0,6.583 -5.417,12 -12,12c-0.069,0 -0.139,-0 -0.208,-0.002l-22.542,0c-4.572,0 -8.333,3.762 -8.333,8.334l-0,111.916c-0.357,6.045 1.595,12.005 5.458,16.667c4.124,4.165 9.86,6.34 15.708,5.958c3.598,0.009 7.178,-0.511 10.625,-1.541c5.867,-1.818 12.216,1.292 14.375,7.041l8.875,23.584Z"
          style="fill:#ffffff;fill-rule:nonzero;"/>
    <path d="M321.5,66.516c0,-8.877 -7.207,-16.083 -16.083,-16.083l-287.792,-0c-8.877,-0 -16.083,7.206 -16.083,16.083l-0,34.75c-0,8.877 7.206,16.083 16.083,16.083l287.792,0c8.876,0 16.083,-7.206 16.083,-16.083l0,-34.75Z"
          style="fill:#e72f41;"/>
    <path d="M321.5,165.599c0,-8.508 -6.908,-15.416 -15.417,-15.416l-109.958,-0c-8.509,-0 -15.417,6.908 -15.417,15.416l0,36.084c0,8.508 6.908,15.416 15.417,15.416l109.958,0c8.509,0 15.417,-6.908 15.417,-15.416l0,-36.084Z"
          style="fill:#ffcc0c;"/>
    <path d="M16.375,248.974l289.458,0c8.595,0 15.667,7.073 15.667,15.667l0,35.625c0,8.595 -7.072,15.667 -15.667,15.667l-289.083,-0c-8.274,-0 -15.083,-6.809 -15.083,-15.084l-0,-36.833c-0.001,-0.07 -0.002,-0.139 -0.002,-0.209c0,-8.09 6.62,-14.765 14.71,-14.833Z"
          style="fill:#51b797;fill-rule:nonzero;"/>
    <path d="M1.458,276.016l0,-110.75c0,-8.526 7.016,-15.542 15.542,-15.542l35.875,0c8.526,0 15.542,7.016 15.542,15.542l-0,110.75c-0,8.069 -6.64,14.708 -14.709,14.708l-37.5,0c-0.014,0 -0.027,0 -0.041,0c-8.069,0 -14.709,-6.639 -14.709,-14.708Z"
          style="fill:#51b797;fill-rule:nonzero;"/>
    <path d="M4.25,235.516c-0,42.774 35.185,77.977 77.958,78l0,-64.292c-7.52,0 -13.708,-6.188 -13.708,-13.708l-64.25,0Z"
          style="fill:#4fb796;"/></svg>
