<svg xmlns="http://www.w3.org/2000/svg" xmlns:xlink="http://www.w3.org/1999/xlink" version="1.0" id="walletconnect" x="0px" y="0px" style="enable-background:new 0 0 844.7 558.2;" xml:space="preserve" viewBox="74.64 222.46 695.36 113.3">
<style type="text/css">
	.st25{fill:#3999FA;}
	.st26{fill:#3A99FB;}
</style>
<g>
	<g transform="matrix(0.38999998569488525,0,0,0.38999998569488525,15.647125244140625,179.59033203125)">
		<g transform="matrix(1,0,0,1,958.0390014648438,149.55299377441406)">
			<path class="st25" d="M-162.7,119.5l-24.5,88.1h-25.5l-34.1-129h28l20.3,93.4h0.7l24.1-93.4h22.8l24.1,93.4h0.7l20.4-93.4h28     l-34.2,129h-25.5l-24.5-88.1H-162.7z M-40.5,190.2c11.3,0,20.7-7.4,20.7-17.8v-7l-20.2,1.2c-9.7,0.7-15.3,5.1-15.3,11.9     C-55.3,185.8-49.4,190.2-40.5,190.2z M-49.1,209.1c-18.2,0-32.1-11.8-32.1-29c0-17.4,13.4-27.5,37.3-29l24.1-1.4v-6.3     c0-8.9-6.3-14.1-16.1-14.1c-9.7,0-15.9,4.8-17.2,11.9h-23.9c1-18.6,16.8-31.4,42.2-31.4c24.6,0,40.6,12.7,40.6,32v65.9h-25.2     v-14.7h-0.5C-25.3,203.1-37.1,209.1-49.1,209.1z M23.3,78.6h26.1v129H23.3V78.6z M67.6,78.6h26.1v129H67.6V78.6z M154.3,129     c-11.4,0-19.7,8.7-20.6,20.6h40.7C173.9,137.4,165.9,129,154.3,129z M174.8,178.3h24c-2.9,18.8-20,31.4-43.7,31.4     c-29.5,0-47.2-18.9-47.2-49.5c0-30.6,17.9-50.4,46.2-50.4c27.9,0,45.5,18.9,45.5,48v8h-66v1.6c0,13.7,8.7,23.1,22,23.1     C165,190.3,172.3,185.6,174.8,178.3z M219.9,89.7H246v22.1h17.7v19.7H246v45.8c0,7.3,3.6,10.8,11.3,10.8c2.3,0,4.7-0.2,6.3-0.4     v19.2c-2.7,0.6-7.2,1.1-12.4,1.1c-22.5,0-31.3-7.5-31.3-26.2v-50.3h-13.5v-19.7h13.5V89.7z M337.2,209.8c-37.5,0-61-25.1-61-66.8     c0-41.6,23.7-66.7,61-66.7c31,0,54.6,19.7,56.7,48.5h-26.3c-2.5-15.8-14.7-26.2-30.4-26.2c-20.4,0-33.5,17.1-33.5,44.2     c0,27.5,13,44.5,33.6,44.5c16,0,27.5-9.4,30.4-24.7H394C390.9,191.6,368.9,209.8,337.2,209.8z M452.3,209.6     c-29,0-47.5-18.6-47.5-50c0-31,18.8-49.9,47.5-49.9c28.7,0,47.5,18.8,47.5,49.9C499.8,191.1,481.3,209.6,452.3,209.6z      M452.3,189.7c12.8,0,20.9-10.8,20.9-30c0-19-8.2-30-20.9-30c-12.7,0-21,11-21,30C431.3,178.9,439.5,189.7,452.3,189.7z      M513.2,207.6v-95.8h25.2v17.1h0.5C544,117,554.1,110,568.9,110c21.3,0,33.2,13.4,33.2,35.8v61.8H576v-56.3     c0-12.5-5.9-19.7-17.6-19.7c-11.7,0-19.1,8.6-19.1,21v55H513.2z M618.6,207.6v-95.8h25.2v17.1h0.5c5.1-11.9,15.2-18.9,29.9-18.9     c21.3,0,33.2,13.4,33.2,35.8v61.8h-26.1v-56.3c0-12.5-5.9-19.7-17.6-19.7c-11.7,0-19.1,8.6-19.1,21v55H618.6z M767.1,129     c-11.4,0-19.7,8.7-20.6,20.6h40.7C786.7,137.4,778.7,129,767.1,129z M787.5,178.3h24c-2.9,18.8-20,31.4-43.7,31.4     c-29.5,0-47.2-18.9-47.2-49.5c0-30.6,17.9-50.4,46.2-50.4c27.9,0,45.5,18.9,45.5,48v8h-66v1.6c0,13.7,8.7,23.1,22,23.1     C777.8,190.3,785.1,185.6,787.5,178.3z M912.7,147.4h-24.2c-1.5-10.1-8.2-17.2-18.9-17.2c-12.9,0-20.9,10.9-20.9,29.4     c0,18.9,8,29.6,21,29.6c10.5,0,17.2-6.3,18.9-16.7h24.3c-1.3,22.6-18.2,37.2-43.4,37.2c-28.9,0-47.2-18.8-47.2-50     c0-30.7,18.3-49.9,47-49.9C895.1,109.7,911.6,125.7,912.7,147.4z M932.4,89.7h26.1v22.1h17.7v19.7h-17.7v45.8     c0,7.3,3.6,10.8,11.3,10.8c2.3,0,4.7-0.2,6.3-0.4v19.2c-2.7,0.6-7.1,1.1-12.4,1.1c-22.5,0-31.3-7.5-31.3-26.2v-50.3h-13.5v-19.7     h13.5V89.7z"/>
		</g>
		<g transform="matrix(1,0,0,1,194.28700256347656,119)">
			<path class="st26" d="M54.1,47.7c77.3-75.7,202.6-75.7,280,0l9.3,9.1c3.9,3.8,3.9,9.9,0,13.7l-31.8,31.2c-1.9,1.9-5.1,1.9-7,0     l-12.8-12.5c-53.9-52.8-141.4-52.8-195.3,0l-13.7,13.4c-1.9,1.9-5.1,1.9-7,0L43.9,71.4c-3.9-3.8-3.9-9.9,0-13.7L54.1,47.7z      M399.9,112.1l28.3,27.7c3.9,3.8,3.9,9.9,0,13.7L300.5,278.6c-3.9,3.8-10.1,3.8-14,0l-90.7-88.8c-1-0.9-2.5-0.9-3.5,0l-90.6,88.8     c-3.9,3.8-10.1,3.8-14,0L-40.1,153.6c-3.9-3.8-3.9-9.9,0-13.7l28.3-27.7c3.9-3.8,10.1-3.8,14,0l90.7,88.8c1,0.9,2.5,0.9,3.5,0     l90.6-88.8c3.9-3.8,10.1-3.8,14,0l90.7,88.8c1,0.9,2.5,0.9,3.5,0l90.7-88.8C389.7,108.3,396,108.3,399.9,112.1z"/>
		</g>
	</g>
</g>
</svg>