<svg xmlns="http://www.w3.org/2000/svg" xmlns:xlink="http://www.w3.org/1999/xlink" version="1.0" id="walletconnect" x="0px" y="0px" style="enable-background:new 0 0 844.7 558.2;" xml:space="preserve" viewBox="74.64 222.46 185.36 113.3">
<style type="text/css">
	.st26{fill:#3A99FB;}
</style>
<g>
	<g transform="matrix(0.38999998569488525,0,0,0.38999998569488525,15.647125244140625,179.59033203125)">
		<g transform="matrix(1,0,0,1,194.28700256347656,119)">
			<path class="st26" d="M54.1,47.7c77.3-75.7,202.6-75.7,280,0l9.3,9.1c3.9,3.8,3.9,9.9,0,13.7l-31.8,31.2c-1.9,1.9-5.1,1.9-7,0     l-12.8-12.5c-53.9-52.8-141.4-52.8-195.3,0l-13.7,13.4c-1.9,1.9-5.1,1.9-7,0L43.9,71.4c-3.9-3.8-3.9-9.9,0-13.7L54.1,47.7z      M399.9,112.1l28.3,27.7c3.9,3.8,3.9,9.9,0,13.7L300.5,278.6c-3.9,3.8-10.1,3.8-14,0l-90.7-88.8c-1-0.9-2.5-0.9-3.5,0l-90.6,88.8     c-3.9,3.8-10.1,3.8-14,0L-40.1,153.6c-3.9-3.8-3.9-9.9,0-13.7l28.3-27.7c3.9-3.8,10.1-3.8,14,0l90.7,88.8c1,0.9,2.5,0.9,3.5,0     l90.6-88.8c3.9-3.8,10.1-3.8,14,0l90.7,88.8c1,0.9,2.5,0.9,3.5,0l90.7-88.8C389.7,108.3,396,108.3,399.9,112.1z"/>
		</g>
	</g>
</g>
</svg>