<svg width="48" height="48" viewBox="0 0 48 48" fill="none" xmlns="http://www.w3.org/2000/svg">
<path d="M12.0002 41.0182C8.04427 38.2105 5.19846 34.1042 3.95831 29.4144C2.71816 24.7246 3.16224 19.7483 5.21321 15.3522C7.26418 10.9561 10.7921 7.41857 15.1827 5.3557C19.5732 3.29283 24.5482 2.83527 29.2414 4.06272C33.9346 5.29016 38.0485 8.12483 40.8669 12.0731C43.6853 16.0214 45.0296 20.8332 44.6657 25.6705C44.3017 30.5079 42.2526 35.0643 38.8752 38.5465C35.4978 42.0286 31.006 44.2159 26.182 44.7273" stroke="url(#paint0_linear_704_65293)" stroke-width="2"/>
<path d="M21.3478 18.4175C24.2262 16.2917 26.7012 15.5064 28.773 16.0616C32.0111 16.9292 32.9923 19.7435 31.7165 24.5046L27.6247 39.7755C26.9262 42.3824 26.6501 44.4555 26.7965 45.9947L23.3184 45.0627C23.1974 43.648 23.5965 41.2255 24.5156 37.7954L28.442 23.1419C28.8207 21.7287 28.8806 20.6271 28.6217 19.8371C28.3664 19.0334 27.69 18.4846 26.5924 18.1904C24.9459 17.7493 23.0892 18.2297 21.0224 19.6318L17.2339 33.7708L13.8381 32.8609L17.6266 18.7218C17.9685 17.4458 18.0734 16.5328 17.9414 15.9827C17.8231 15.4363 17.4621 15.0823 16.8584 14.9205C15.8843 14.6595 15.0301 15.46 14.2958 17.322L13.5549 17.1235C14.6722 13.9965 16.4177 12.751 18.7914 13.387C19.8478 13.6701 20.613 14.2721 21.0868 15.1932C21.5642 16.1005 21.6512 17.1753 21.3478 18.4175Z" fill="url(#paint1_linear_704_65293)"/>
<defs>
<linearGradient id="paint0_linear_704_65293" x1="3.3673" y1="3.59491" x2="51.4941" y2="14.3046" gradientUnits="userSpaceOnUse">
<stop stop-color="#ACFADF"/>
<stop offset="1" stop-color="#E8FFCE"/>
</linearGradient>
<linearGradient id="paint1_linear_704_65293" x1="14.8479" y1="12.4827" x2="37.1973" y2="22.288" gradientUnits="userSpaceOnUse">
<stop stop-color="#ACFADF"/>
<stop offset="1" stop-color="#E8FFCE"/>
</linearGradient>
</defs>
</svg>
